<svg width="30" height="30" viewBox="0 0 30 30" fill="none" xmlns="http://www.w3.org/2000/svg">
<path d="M13.7 0.139202C13.0652 0.288175 12.5458 0.536463 11.9521 0.958553C11.6801 1.15718 9.08295 3.71455 6.17253 6.64435C0.516603 12.3467 0.656764 12.1812 0.2033 13.4971C-0.0770228 14.3082 -0.068778 15.6903 0.23628 16.6007C0.351707 16.9649 0.582561 17.4697 0.730967 17.718C1.13496 18.3636 11.6636 28.9158 12.2654 29.2882C12.521 29.4372 12.991 29.6607 13.329 29.7848C13.8567 29.9752 14.0546 30 14.9615 30C15.8189 30 16.0828 29.9669 16.528 29.8096C17.7235 29.3958 17.7977 29.3296 23.5855 23.4948C28.8375 18.2063 29.0436 17.9828 29.3651 17.3456C29.9093 16.2697 30 15.8972 30 14.8627C30 14.0764 29.967 13.8778 29.7774 13.3895C29.662 13.0833 29.4229 12.6198 29.258 12.355C28.8787 11.7674 18.6799 1.47168 17.9708 0.958553C16.7918 0.106097 15.1346 -0.208402 13.7 0.139202ZM17.6246 9.10241C17.9131 9.21 17.9214 9.54933 17.6575 9.94659C17.4844 10.2114 17.4349 10.228 16.8743 10.2776C15.9838 10.3604 15.4562 10.7163 15.1429 11.4529C15.011 11.7674 15.0027 11.7591 15.4067 11.7591C15.8849 11.7591 15.9756 11.875 15.8684 12.4046C15.753 13.0502 15.6541 13.1578 15.1676 13.1826L14.7554 13.2074L14.3184 15.2765C13.832 17.6187 13.8072 18.0408 14.1617 18.6532C14.574 19.3567 15.349 19.6795 16.4291 19.5967C17.6493 19.5057 18.4161 19.0588 18.8201 18.198C18.9602 17.9084 19.0921 17.5773 19.1169 17.4532L19.1663 17.2297L18.8118 17.4697C18.3089 17.809 18.0368 17.9001 17.5174 17.8918C16.7506 17.8918 16.1982 17.5856 15.9426 17.0228C15.7283 16.5428 15.7447 16.1869 16.0745 14.6475C16.2394 13.9026 16.4291 13.0171 16.495 12.686C16.5857 12.2474 16.6682 12.057 16.8083 11.966C17.0722 11.7922 17.6988 11.7177 17.9296 11.8419C18.111 11.9412 18.111 11.9743 18.0615 12.5784C18.0368 12.926 17.9049 13.7454 17.7647 14.4075C17.4762 15.7979 17.4679 15.9552 17.6493 16.22C17.773 16.3938 17.8307 16.4104 18.2347 16.369C18.7706 16.311 19.0592 16.1372 19.2076 15.7896C19.3065 15.5496 19.5044 14.6641 19.9001 12.7109C20.0568 11.9577 20.1557 11.8667 20.9225 11.7839C21.6068 11.7094 21.615 11.7508 21.31 13.3481C20.4443 17.8835 20.2382 18.6532 19.6693 19.4809C19.0179 20.4409 17.6493 21.0285 16.0993 21.0285C14.475 21.0202 13.2631 20.3333 12.6365 19.0505C12.15 18.0822 12.2077 17.2794 12.9745 13.9689C13.0734 13.5716 13.1476 13.224 13.1476 13.2074C13.1476 13.1909 12.9333 13.1661 12.6777 13.1495C12.216 13.1247 12.1995 13.1164 12.1747 12.8764C12.1665 12.7357 12.2407 12.4626 12.3396 12.2557C12.521 11.8915 12.5458 11.8832 12.9745 11.8419L13.4115 11.8005L13.5516 11.3453C13.9144 10.1866 14.8131 9.31759 15.9509 9.05275C16.4373 8.93688 17.2618 8.96171 17.6246 9.10241ZM11.0864 9.75623C11.3997 9.98797 11.6059 10.468 11.5481 10.8073C11.3338 11.9163 9.78375 12.0322 9.43747 10.9563C9.11593 10.0045 10.2702 9.16034 11.0864 9.75623ZM11.0947 12.2639C11.309 12.4791 11.2926 12.5784 10.7896 14.8461C10.5917 15.74 10.4268 16.5179 10.4268 16.5676C10.4268 16.6255 10.6495 16.6421 11.0699 16.6255L11.7048 16.6007L11.7295 16.8573C11.779 17.3704 11.6553 17.5111 11.0287 17.627C10.7237 17.6849 10.1465 17.7511 9.75902 17.7759C9.10768 17.8173 9.03348 17.809 8.86858 17.6435C8.7614 17.5359 8.69544 17.3621 8.69544 17.1801C8.69544 16.9318 9.28907 13.9275 9.39625 13.5964C9.42923 13.5137 9.3138 13.4971 8.91805 13.5137C8.43161 13.5385 8.40687 13.5302 8.38214 13.3399C8.36565 13.2323 8.37389 13.0171 8.40687 12.8598C8.46459 12.5288 8.54704 12.4874 9.6271 12.2639C10.633 12.0488 10.8803 12.0488 11.0947 12.2639Z" fill="#E20A0A"/>
</svg>
